<?xml version="1.0" encoding="utf-8"?>
<!-- Generator: Adobe Illustrator 23.1.1, SVG Export Plug-In . SVG Version: 6.00 Build 0)  -->
<svg version="1.1" id="Calque_1" xmlns="http://www.w3.org/2000/svg" xmlns:xlink="http://www.w3.org/1999/xlink" x="0px" y="0px"
	 viewBox="0 0 512 512" style="enable-background:new 0 0 512 512;" xml:space="preserve">
<style type="text/css">
	.st0{fill:#7F8C8D;}
	.st1{fill:#95A5A5;}
	.st2{fill:#2980BA;}
	.st3{fill:#3B97D3;}
	.st4{fill:#E6E7E8;}
	.st5{fill:#D70015;}
	.st6{fill:#FFFFFF;}
	.st7{fill:#BDC3C7;}
</style>
<path class="st0" d="M185.4,397.8h105.9v70.6H185.4V397.8z"/>
<path class="st1" d="M476.7,327.1v53c0,19.5-15.8,35.3-35.3,35.3H35.3C15.8,415.4,0,399.6,0,380.1v-53H476.7z"/>
<path class="st1" d="M388.4,486H114.8v-8.8c0-14.6,11.9-26.5,26.5-26.5h220.7L388.4,486z"/>
<path class="st2" d="M476.7,62.3v282.5H0V62.3C0,42.8,15.8,27,35.3,27h406.1C460.9,27,476.7,42.8,476.7,62.3z"/>
<path class="st3" d="M472.8,46.3C216.5,97.7,40.3,295.1,0,344.1V62.3C0,42.8,15.8,27,35.3,27h406.1C454.7,27,466.8,34.5,472.8,46.3z
	"/>
<g>
	<path class="st4" d="M70.6,291.8H44.1c-4.9,0-8.8,4-8.8,8.8s4,8.8,8.8,8.8h26.5c4.9,0,8.8-4,8.8-8.8S75.5,291.8,70.6,291.8z"/>
	<path class="st4" d="M44.1,238.9h97.1c4.9,0,8.8-4,8.8-8.8s-4-8.8-8.8-8.8H44.1c-4.9,0-8.8,4-8.8,8.8S39.3,238.9,44.1,238.9z"/>
	<path class="st4" d="M176.6,238.9h123.6c4.9,0,8.8-4,8.8-8.8s-4-8.8-8.8-8.8H176.6c-4.9,0-8.8,4-8.8,8.8S171.7,238.9,176.6,238.9z"
		/>
	<path class="st4" d="M44.1,274.2h61.8c4.9,0,8.8-4,8.8-8.8s-4-8.8-8.8-8.8H44.1c-4.9,0-8.8,4-8.8,8.8S39.3,274.2,44.1,274.2z"/>
	<path class="st4" d="M141.2,256.5c-4.9,0-8.8,4-8.8,8.8s4,8.8,8.8,8.8h132.4c4.9,0,8.8-4,8.8-8.8s-4-8.8-8.8-8.8H141.2z"/>
	<path class="st4" d="M335.4,291.8H105.9c-4.9,0-8.8,4-8.8,8.8s4,8.8,8.8,8.8h229.5c4.9,0,8.8-4,8.8-8.8S340.3,291.8,335.4,291.8z"
		/>
	<path class="st4" d="M300.1,265.3c0,4.9,4,8.8,8.8,8.8h26.5c4.9,0,8.8-4,8.8-8.8s-4-8.8-8.8-8.8H309
		C304.1,256.5,300.1,260.5,300.1,265.3z"/>
</g>
<path class="st5" d="M44.1,71.1h88.3c4.9,0,8.8,4,8.8,8.8v105.9c0,4.9-4,8.8-8.8,8.8H44.1c-4.9,0-8.8-3.9-8.8-8.8V80
	C35.3,75.1,39.3,71.1,44.1,71.1z"/>
<path d="M194.2,71.1h88.3c4.9,0,8.8,4,8.8,8.8v105.9c0,4.9-3.9,8.8-8.8,8.8h-88.3c-4.9,0-8.8-3.9-8.8-8.8V80
	C185.4,75.1,189.3,71.1,194.2,71.1z"/>
<path class="st6" d="M344.3,71.1h88.3c4.9,0,8.8,4,8.8,8.8v105.9c0,4.9-4,8.8-8.8,8.8h-88.3c-4.9,0-8.8-3.9-8.8-8.8V80
	C335.4,75.1,339.4,71.1,344.3,71.1z"/>
<path class="st7" d="M361.9,150.6h123.6c14.6,0,26.5,11.9,26.5,26.5v282.5c0,14.6-11.9,26.5-26.5,26.5H361.9
	c-14.6,0-26.5-11.9-26.5-26.5V177.1C335.4,162.4,347.3,150.6,361.9,150.6z"/>
<path class="st2" d="M335.4,203.6v229.5H512V203.6H335.4z"/>
<path class="st3" d="M512,203.6v5.1c-37.2,30.5-124.2,108.5-176.6,207.5V203.6H512z"/>
<path class="st4" d="M370.8,371.3h61.8c4.9,0,8.8-4,8.8-8.8s-4-8.8-8.8-8.8h-61.8c-4.9,0-8.8,4-8.8,8.8S365.9,371.3,370.8,371.3z"/>
<path class="st4" d="M467.9,371.3h8.8c4.9,0,8.8-4,8.8-8.8s-3.9-8.8-8.8-8.8h-8.8c-4.9,0-8.8,4-8.8,8.8S463,371.3,467.9,371.3z"/>
<path class="st4" d="M379.6,388.9h-8.8c-4.9,0-8.8,4-8.8,8.8s4,8.8,8.8,8.8h8.8c4.9,0,8.8-4,8.8-8.8S384.5,388.9,379.6,388.9z"/>
<path class="st4" d="M476.7,388.9h-61.8c-4.9,0-8.8,4-8.8,8.8s3.9,8.8,8.8,8.8h61.8c4.9,0,8.8-4,8.8-8.8S481.6,388.9,476.7,388.9z"
	/>
<path class="st5" d="M379.6,238.9h88.3c4.9,0,8.8,3.9,8.8,8.8v70.6c0,4.9-4,8.8-8.8,8.8h-88.3c-4.9,0-8.8-3.9-8.8-8.8v-70.6
	C370.8,242.8,374.7,238.9,379.6,238.9z"/>
<path class="st0" d="M432.6,468.4V486h-17.7v-17.7c0-4.9,3.9-8.8,8.8-8.8S432.6,463.5,432.6,468.4z"/>
</svg>
