<?xml version="1.0" encoding="utf-8"?>
<!-- Generator: Adobe Illustrator 23.1.1, SVG Export Plug-In . SVG Version: 6.00 Build 0)  -->
<svg version="1.1" id="Calque_1" xmlns="http://www.w3.org/2000/svg" xmlns:xlink="http://www.w3.org/1999/xlink" x="0px" y="0px"
	 viewBox="0 0 512 512" style="enable-background:new 0 0 512 512;" xml:space="preserve">
<style type="text/css">
	.st0{fill:#B0D3F0;}
	.st1{fill:#D70015;}
	.st2{fill:#E64C3C;}
	.st3{fill:#F0C419;}
	.st4{fill:#14A085;}
	.st5{fill:#955BA5;}
	.st6{fill:#FFFFFF;}
	.st7{fill:#3B97D3;}
	.st8{fill:#71C285;}
	.st9{fill:#4FBA6F;}
	.st10{fill:#95A5A5;}
	.st11{fill:#F29C1F;}
	.st12{fill:#F3D55B;}
</style>
<path class="st0" d="M335.4,229.5v246.3c0.2,19.7-15.6,35.9-35.3,36.2H35.3C15.6,511.7-0.2,495.5,0,475.7V229.5l26.5-8.8h264.8
	L335.4,229.5z"/>
<path class="st1" d="M335.4,195l0,34.4H0L0,195c-0.2-19.7,15.6-35.9,35.3-36.2h264.8C319.9,159.1,335.7,175.3,335.4,195z"/>
<path class="st2" d="M53,194.1c0,4.9-4,8.8-8.8,8.8s-8.8-4-8.8-8.8c0-4.9,4-8.8,8.8-8.8S53,189.3,53,194.1z"/>
<path class="st3" d="M88.3,194.1c0,4.9-4,8.8-8.8,8.8s-8.8-4-8.8-8.8c0-4.9,3.9-8.8,8.8-8.8S88.3,189.3,88.3,194.1z"/>
<path class="st4" d="M123.6,194.1c0,4.9-4,8.8-8.8,8.8c-4.9,0-8.8-4-8.8-8.8c0-4.9,4-8.8,8.8-8.8
	C119.6,185.3,123.6,189.3,123.6,194.1z"/>
<path class="st5" d="M300.1,194.1c0,4.9-4,8.8-8.8,8.8s-8.8-4-8.8-8.8c0-4.9,4-8.8,8.8-8.8S300.1,189.3,300.1,194.1z"/>
<g>
	<path class="st6" d="M70.6,467.8H44.1c-4.9,0-8.8,4-8.8,8.8c0,4.9,4,8.8,8.8,8.8h26.5c4.9,0,8.8-4,8.8-8.8
		C79.4,471.7,75.5,467.8,70.6,467.8z"/>
	<path class="st6" d="M291.3,467.8H105.9c-4.9,0-8.8,4-8.8,8.8c0,4.9,4,8.8,8.8,8.8h185.4c4.9,0,8.8-4,8.8-8.8
		C300.1,471.7,296.2,467.8,291.3,467.8z"/>
	<path class="st6" d="M44.1,414.8h97.1c4.9,0,8.8-4,8.8-8.8s-3.9-8.8-8.8-8.8H44.1c-4.9,0-8.8,4-8.8,8.8S39.3,414.8,44.1,414.8z"/>
	<path class="st6" d="M176.6,414.8h114.8c4.9,0,8.8-4,8.8-8.8s-4-8.8-8.8-8.8H176.6c-4.9,0-8.8,4-8.8,8.8S171.7,414.8,176.6,414.8z"
		/>
	<path class="st6" d="M44.1,450.1h61.8c4.9,0,8.8-4,8.8-8.8c0-4.9-4-8.8-8.8-8.8H44.1c-4.9,0-8.8,3.9-8.8,8.8
		C35.3,446.2,39.3,450.1,44.1,450.1z"/>
	<path class="st6" d="M291.3,432.5H141.2c-4.9,0-8.8,3.9-8.8,8.8c0,4.9,3.9,8.8,8.8,8.8h150.1c4.9,0,8.8-4,8.8-8.8
		C300.1,436.4,296.2,432.5,291.3,432.5z"/>
</g>
<path class="st7" d="M53,264.8h229.5c4.9,0,8.8,4,8.8,8.8v88.3c0,4.9-4,8.8-8.8,8.8H53c-4.9,0-8.8-4-8.8-8.8v-88.3
	C44.1,268.7,48.1,264.8,53,264.8z"/>
<path class="st8" d="M198.6,370.7L75.8,370l61-61.1l36.2,36.3l0.9,0.8L198.6,370.7z"/>
<path class="st9" d="M250.8,370v0.7h-52.2L173.9,346l-0.9-0.8l25.6-23.9L250.8,370z"/>
<path class="st10" d="M335.4,317.7h88.3v26.5c0,24.4-19.8,44.1-44.1,44.1c-24.4,0-44.1-19.8-44.1-44.1V317.7z"/>
<path class="st3" d="M511.9,127.6c2,54.9-29.4,105.6-79.4,128.4v61.8c0,4.9-4,8.8-8.8,8.8h-88.3c-4.9,0-8.8-4-8.8-8.8v-61.8
	c-48.4-22-79.5-70.4-79.4-123.6c0-72.2,57.9-131,130-132.3C449.4-1.3,509.3,55.5,511.9,127.6z"/>
<path class="st11" d="M370.8,291.2c0,4.9-4,8.8-8.8,8.8h-35.3v-17.7h35.3C366.8,282.4,370.8,286.4,370.8,291.2z"/>
<path class="st11" d="M432.6,282.4v17.7h-35.3c-4.9,0-8.8-4-8.8-8.8s3.9-8.8,8.8-8.8H432.6z"/>
<path class="st12" d="M341.1,33.7c-40.5,16.1-67.2,55.1-67.4,98.7c0,4.9,4,8.8,8.8,8.8c4.9,0,8.8-4,8.8-8.8
	c0.2-36.3,22.4-68.9,56.2-82.2c4.5-1.8,6.7-6.9,5-11.4C350.7,34.2,345.6,31.9,341.1,33.7z"/>
<path class="st12" d="M476.7,123.5c-4.9,0-8.8,4-8.8,8.8c-0.2,36.3-22.4,68.9-56.2,82.2c-3.9,1.6-6.2,5.7-5.4,9.9
	c0.8,4.2,4.4,7.2,8.7,7.2c1.1,0,2.2-0.2,3.2-0.6c40.5-16.1,67.2-55.1,67.4-98.7C485.5,127.5,481.6,123.5,476.7,123.5z"/>
<path class="st12" d="M385.9,29c-0.4-0.4-0.9-0.7-1.3-1.1c-0.5-0.3-1-0.6-1.6-0.8c-0.5-0.3-1-0.4-1.6-0.5c-2.9-0.6-5.9,0.3-8,2.4
	c-0.8,0.9-1.4,1.8-1.9,2.9c-0.5,1-0.7,2.2-0.7,3.4c0,0.6,0.1,1.2,0.2,1.8c0.1,0.6,0.3,1.1,0.5,1.6c0.2,0.5,0.4,1,0.8,1.5
	c0.3,0.5,0.7,1,1.1,1.4c1.7,1.6,3.9,2.5,6.3,2.6c0.6,0,1.2-0.1,1.8-0.2c0.6-0.1,1.1-0.3,1.6-0.5c0.6-0.2,1.1-0.5,1.6-0.8l1.3-1.1
	c0.4-0.4,0.7-0.9,1.1-1.4c0.3-0.5,0.6-1,0.8-1.5c0.3-0.5,0.4-1,0.5-1.6c0.1-0.6,0.2-1.2,0.2-1.8c0-1.2-0.3-2.3-0.7-3.4
	C387.3,30.8,386.7,29.8,385.9,29z"/>
</svg>
