<?xml version="1.0" encoding="utf-8"?>
<!-- Generator: Adobe Illustrator 23.1.1, SVG Export Plug-In . SVG Version: 6.00 Build 0)  -->
<svg version="1.1" id="Calque_1" xmlns="http://www.w3.org/2000/svg" xmlns:xlink="http://www.w3.org/1999/xlink" x="0px" y="0px"
	 viewBox="0 0 512 512" style="enable-background:new 0 0 512 512;" xml:space="preserve">
<style type="text/css">
	.st0{fill:#B0D3F0;}
	.st1{fill:#D70015;}
	.st2{fill:#E64C3C;}
	.st3{fill:#F0C419;}
	.st4{fill:#14A085;}
	.st5{fill:#955BA5;}
	.st6{fill:#2FA8CC;}
	.st7{fill:#3F5C6C;}
	.st8{fill:#C03A2B;}
</style>
<path class="st0" d="M512,102.3v335.4c0,19.5-15.8,35.3-35.3,35.3H35.3C15.8,473,0,457.2,0,437.7V102.3H512z"/>
<path class="st1" d="M512,49.3v70.6H0V49.3C0,29.8,15.8,14,35.3,14h441.4C496.2,14,512,29.8,512,49.3z"/>
<path class="st2" d="M70.6,67c0,9.8-7.9,17.7-17.7,17.7S35.3,76.7,35.3,67S43.2,49.3,53,49.3S70.6,57.2,70.6,67z"/>
<path class="st3" d="M141.2,67c0,9.8-7.9,17.7-17.7,17.7s-17.7-7.9-17.7-17.7s7.9-17.7,17.7-17.7S141.2,57.2,141.2,67z"/>
<path class="st4" d="M211.9,67c0,9.8-7.9,17.7-17.7,17.7s-17.7-7.9-17.7-17.7s7.9-17.7,17.7-17.7S211.9,57.2,211.9,67z"/>
<path class="st5" d="M370.8,75.8h-88.3c-4.9,0-8.8-4-8.8-8.8s3.9-8.8,8.8-8.8h88.3c4.9,0,8.8,4,8.8,8.8S375.6,75.8,370.8,75.8z"/>
<path class="st5" d="M467.9,75.8h-61.8c-4.9,0-8.8-4-8.8-8.8s4-8.8,8.8-8.8h61.8c4.9,0,8.8,4,8.8,8.8S472.7,75.8,467.9,75.8z"/>
<path class="st6" d="M76.9,149c-3.4-3.4-9-3.4-12.5,0l-26.5,26.5c-3.4,3.4-3.4,9,0,12.5l26.5,26.5c3.5,3.3,9,3.3,12.4-0.1
	s3.5-8.9,0.1-12.4l-20.2-20.2l20.2-20.2C80.3,158,80.3,152.4,76.9,149z"/>
<path class="st6" d="M182.8,175.5L156.3,149c-3.5-3.3-9-3.3-12.4,0.1c-3.4,3.4-3.4,8.9-0.1,12.4l20.2,20.2L143.8,202
	c-2.3,2.2-3.2,5.5-2.4,8.6c0.8,3.1,3.2,5.5,6.3,6.3s6.4-0.1,8.6-2.4l26.5-26.5C186.2,184.5,186.2,178.9,182.8,175.5z"/>
<path class="st6" d="M127.5,147.3c-2.1-1-4.5-1.2-6.7-0.5s-4.1,2.3-5.1,4.4l-26.5,53c-2.2,4.4-0.4,9.7,4,11.8
	c4.4,2.2,9.7,0.4,11.8-4l26.5-53c1-2.1,1.2-4.5,0.5-6.7S129.6,148.4,127.5,147.3z"/>
<g>
	<path class="st7" d="M211.9,181.7H256c4.9,0,8.8-3.9,8.8-8.8c0-4.9-4-8.8-8.8-8.8h-44.1c-4.9,0-8.8,3.9-8.8,8.8
		C203,177.8,207,181.7,211.9,181.7z"/>
	<path class="st7" d="M291.3,181.7h8.8c4.9,0,8.8-3.9,8.8-8.8c0-4.9-4-8.8-8.8-8.8h-8.8c-4.9,0-8.8,3.9-8.8,8.8
		C282.5,177.8,286.4,181.7,291.3,181.7z"/>
	<path class="st7" d="M211.9,225.9h17.7c4.9,0,8.8-4,8.8-8.8s-3.9-8.8-8.8-8.8h-17.7c-4.9,0-8.8,4-8.8,8.8S207,225.9,211.9,225.9z"
		/>
	<path class="st7" d="M44.1,270h26.5c4.9,0,8.8-4,8.8-8.8s-4-8.8-8.8-8.8H44.1c-4.9,0-8.8,4-8.8,8.8S39.3,270,44.1,270z"/>
	<path class="st7" d="M105.9,270h70.6c4.9,0,8.8-4,8.8-8.8s-4-8.8-8.8-8.8h-70.6c-4.9,0-8.8,4-8.8,8.8S101.1,270,105.9,270z"/>
	<path class="st7" d="M70.6,340.6H44.1c-4.9,0-8.8,4-8.8,8.8s4,8.8,8.8,8.8h26.5c4.9,0,8.8-4,8.8-8.8S75.5,340.6,70.6,340.6z"/>
	<path class="st7" d="M176.6,340.6h-70.6c-4.9,0-8.8,4-8.8,8.8s4,8.8,8.8,8.8h70.6c4.9,0,8.8-4,8.8-8.8S181.4,340.6,176.6,340.6z"/>
	<path class="st7" d="M247.2,340.6h-35.3c-4.9,0-8.8,4-8.8,8.8s4,8.8,8.8,8.8h35.3c4.9,0,8.8-4,8.8-8.8S252,340.6,247.2,340.6z"/>
	<path class="st7" d="M247.2,296.5h-70.6c-4.9,0-8.8,3.9-8.8,8.8c0,4.9,4,8.8,8.8,8.8h70.6c4.9,0,8.8-3.9,8.8-8.8
		C256,300.4,252,296.5,247.2,296.5z"/>
	<path class="st7" d="M44.1,314.1h97.1c4.9,0,8.8-3.9,8.8-8.8c0-4.9-4-8.8-8.8-8.8H44.1c-4.9,0-8.8,3.9-8.8,8.8
		C35.3,310.2,39.3,314.1,44.1,314.1z"/>
	<path class="st7" d="M300.1,208.2H256c-4.9,0-8.8,4-8.8,8.8s4,8.8,8.8,8.8h44.1c4.9,0,8.8-4,8.8-8.8S305,208.2,300.1,208.2z"/>
	<path class="st7" d="M300.1,252.3h-88.3c-4.9,0-8.8,4-8.8,8.8s4,8.8,8.8,8.8h88.3c4.9,0,8.8-4,8.8-8.8S305,252.3,300.1,252.3z"/>
</g>
<path class="st8" d="M512,411.2v53c0,19.5-43.4,35.3-97.1,35.3c-53.7,0-97.1-15.8-97.1-35.3v-53H512z"/>
<path class="st2" d="M512,358.3v53c0,19.5-43.4,35.3-97.1,35.3c-53.7,0-97.1-15.8-97.1-35.3v-53H512z"/>
<path class="st8" d="M512,305.3v53c0,19.5-43.4,35.3-97.1,35.3c-53.7,0-97.1-15.8-97.1-35.3v-53H512z"/>
<path class="st2" d="M512,305.3c0-19.5-43.5-35.3-97.1-35.3c-53.6,0-97.1,15.8-97.1,35.3c0,19.5,43.5,35.3,97.1,35.3
	C468.5,340.6,512,324.8,512,305.3z"/>
</svg>
