<?xml version="1.0" encoding="utf-8"?>
<!-- Generator: Adobe Illustrator 23.1.1, SVG Export Plug-In . SVG Version: 6.00 Build 0)  -->
<svg version="1.1" id="Calque_1" xmlns="http://www.w3.org/2000/svg" xmlns:xlink="http://www.w3.org/1999/xlink" x="0px" y="0px"
	 viewBox="0 0 512 512" style="enable-background:new 0 0 512 512;" xml:space="preserve">
<style type="text/css">
	.st0{fill:#B0D3F0;}
	.st1{fill:#FF5364;}
	.st2{fill:#DF4D60;}
	.st3{fill:#FB7B76;}
	.st4{fill:#802D40;}
	.st5{fill:#D70015;}
	.st6{fill:#E64C3C;}
	.st7{fill:#F0C419;}
	.st8{fill:#14A085;}
	.st9{fill:#955BA5;}
	.st10{fill:#D25627;}
	.st11{fill:#E57E25;}
	.st12{fill:#F29C1F;}
	.st13{fill:#7ED09E;}
	.st14{fill:#71C285;}
	.st15{fill:#24AE5F;}
	.st16{fill:#4FBA6F;}
	.st17{fill:#1B8347;}
	.st18{fill:#285680;}
	.st19{fill:#C03A2B;}
	.st20{fill:#35495E;}
	.st21{fill:#2980BA;}
	.st22{fill:#3B97D3;}
	.st23{fill:#67B9CC;}
	.st24{fill:#E6E7E8;}
</style>
<path class="st0" d="M512,88.3v264.8c0,19.5-15.8,35.3-35.3,35.3H35.3C15.8,388.4,0,372.6,0,353.1V88.3H512z"/>
<path class="st1" d="M222.5,423.7l42.4,17.7l34-17.7l4.1-2.4l45.9-26.5l45.8-26.5l30.6-17.7l-44.1-76.4l-30.6,17.7l-45.8,26.5
	l-32.1,18.4l-0.1,0.1v0.1l-43,24.9L222.5,423.7z"/>
<path class="st2" d="M348.9,394.9L303,421.3l-39.5-68.5v-0.1l1.4-2.5l7.7-13.2v-0.1l0.1-0.1l32.1-18.4L348.9,394.9z"/>
<path class="st3" d="M425.3,350.7l-30.6,17.7l-44.1-76.4l30.6-17.7c8.4-4.8,19.2-2,24.1,6.4l26.5,45.9
	C436.6,335.1,433.7,345.8,425.3,350.7z"/>
<path class="st4" d="M303,421.3l-4.1,2.4h-76.4l10.3-17.9l5.6-9.6l25.1-43.3L303,421.3z"/>
<path class="st5" d="M512,35.3v70.6H0V35.3C0,15.8,15.8,0,35.3,0h441.4C496.2,0,512,15.8,512,35.3z"/>
<path class="st6" d="M70.6,53c0,9.8-7.9,17.7-17.7,17.7S35.3,62.7,35.3,53S43.2,35.3,53,35.3S70.6,43.2,70.6,53z"/>
<path class="st7" d="M141.2,53c0,9.8-7.9,17.7-17.7,17.7s-17.7-7.9-17.7-17.7s7.9-17.7,17.7-17.7S141.2,43.2,141.2,53z"/>
<path class="st8" d="M211.9,53c0,9.8-7.9,17.7-17.7,17.7s-17.7-7.9-17.7-17.7s7.9-17.7,17.7-17.7S211.9,43.2,211.9,53z"/>
<path class="st9" d="M370.8,61.8h-88.3c-4.9,0-8.8-4-8.8-8.8s3.9-8.8,8.8-8.8h88.3c4.9,0,8.8,4,8.8,8.8S375.6,61.8,370.8,61.8z"/>
<path class="st9" d="M467.9,61.8h-61.8c-4.9,0-8.8-4-8.8-8.8s4-8.8,8.8-8.8h61.8c4.9,0,8.8,4,8.8,8.8S472.7,61.8,467.9,61.8z"/>
<path class="st10" d="M97.1,194.2h88.3v247.2H97.1V194.2z"/>
<path class="st11" d="M97.1,264.8h88.3v53H97.1V264.8z"/>
<path class="st12" d="M97.1,211.9h88.3v53H97.1V211.9z"/>
<path class="st7" d="M185.4,176.6v35.3H97.1v-35.3c0-9.7,7.9-17.6,17.7-17.7h53C177.5,158.9,185.4,166.8,185.4,176.6z"/>
<path class="st13" d="M335.4,227.9l-17.7,30.6l-76.4-44.1l17.7-30.6c4.9-8.4,15.7-11.3,24.1-6.4l45.9,26.5
	C337.4,208.7,340.3,219.5,335.4,227.9z"/>
<path class="st14" d="M214.9,260.2l26.5-45.8l76.4,44.2l-26.5,45.8L214.9,260.2z"/>
<path class="st15" d="M214.9,260.2l-26.5,45.9l-3,5.2v112.4h37.1l10.3-17.9l5.6-9.6l25.1-43.3v-0.1l1.4-2.5l7.7-13.2v-0.1l0.1-0.1
	l18.7-32.5L214.9,260.2z"/>
<path class="st16" d="M291.3,304.4l-18.7,32.5l-0.1,0.1v0.1l-7.7,13.2l-76.4-44.1l26.5-45.9L291.3,304.4z"/>
<path class="st17" d="M238.3,396.2l-5.6,9.6l-10.3,17.9h-37.1v-58.1l18.8,10.9l17.5,10.1L238.3,396.2z"/>
<path class="st18" d="M123.6,423.7h282.5V512H123.6V423.7z"/>
<path class="st19" d="M185.4,370.8v53h-70.6c-9.7,0-17.6,7.9-17.7,17.7v-70.6H185.4z"/>
<path class="st20" d="M238.3,423.7V512H114.8c-9.7,0-17.6-7.9-17.7-17.7v-53c0-9.7,7.9-17.6,17.7-17.7H238.3z"/>
<path class="st21" d="M291.3,423.7h53V512h-53V423.7z"/>
<path class="st22" d="M344.3,423.7h53V512h-53V423.7z"/>
<path class="st23" d="M450.2,441.4v53c0,9.7-7.9,17.6-17.7,17.7h-35.3v-88.3h35.3C442.3,423.8,450.2,431.6,450.2,441.4z"/>
<path class="st24" d="M150.1,459c0-4.9-4-8.8-8.8-8.8s-8.8,4-8.8,8.8c-4.9,0-8.8,4-8.8,8.8s4,8.8,8.8,8.8c0,4.9,4,8.8,8.8,8.8
	s8.8-3.9,8.8-8.8c4.9,0,8.8-4,8.8-8.8S154.9,459,150.1,459z"/>
</svg>
